<svg width="72" height="56" viewBox="0 0 72 56" fill="none" xmlns="http://www.w3.org/2000/svg">
<path d="M35 24.8C36.167 24.8 37.2861 24.3364 38.1113 23.5113C38.9364 22.6861 39.4 21.567 39.4 20.4C39.4 19.233 38.9364 18.1139 38.1113 17.2887C37.2861 16.4636 36.167 16 35 16C33.833 16 32.7139 16.4636 31.8887 17.2887C31.0636 18.1139 30.6 19.233 30.6 20.4C30.6 21.567 31.0636 22.6861 31.8887 23.5113C32.7139 24.3364 33.833 24.8 35 24.8ZM27.85 28.1C28.5793 28.1 29.2788 27.8103 29.7945 27.2945C30.3103 26.7788 30.6 26.0793 30.6 25.35C30.6 24.6207 30.3103 23.9212 29.7945 23.4055C29.2788 22.8897 28.5793 22.6 27.85 22.6C27.1207 22.6 26.4212 22.8897 25.9055 23.4055C25.3897 23.9212 25.1 24.6207 25.1 25.35C25.1 26.0793 25.3897 26.7788 25.9055 27.2945C26.4212 27.8103 27.1207 28.1 27.85 28.1ZM44.9 25.35C44.9 26.0793 44.6103 26.7788 44.0945 27.2945C43.5788 27.8103 42.8793 28.1 42.15 28.1C41.4207 28.1 40.7212 27.8103 40.2055 27.2945C39.6897 26.7788 39.4 26.0793 39.4 25.35C39.4 24.6207 39.6897 23.9212 40.2055 23.4055C40.7212 22.8897 41.4207 22.6 42.15 22.6C42.8793 22.6 43.5788 22.8897 44.0945 23.4055C44.6103 23.9212 44.9 24.6207 44.9 25.35ZM35 25.9C36.4587 25.9 37.8576 26.4795 38.8891 27.5109C39.9205 28.5424 40.5 29.9413 40.5 31.4V38H29.5V31.4C29.5 29.9413 30.0795 28.5424 31.1109 27.5109C32.1424 26.4795 33.5413 25.9 35 25.9ZM27.3 31.4C27.3 30.6377 27.41 29.9018 27.6168 29.2066L27.4298 29.222C26.487 29.3255 25.6155 29.7734 24.9826 30.4799C24.3496 31.1863 23.9998 32.1015 24 33.05V38H27.3V31.4ZM46 38V33.05C46.0001 32.0692 45.6259 31.1253 44.9538 30.4111C44.2816 29.6968 43.3622 29.266 42.3832 29.2066C42.5889 29.9018 42.7 30.6377 42.7 31.4V38H46Z" fill="#525252"/>
<path d="M25.391 44.1525H22.9215V51H21.64V44.1525H19.165V43.08H25.391V44.1525ZM28.6207 47.5625C28.6207 47.3645 28.5914 47.1812 28.5327 47.0125C28.4777 46.8402 28.3952 46.6917 28.2852 46.567C28.1752 46.4387 28.0377 46.3397 27.8727 46.27C27.7114 46.1967 27.5244 46.16 27.3117 46.16C26.8827 46.16 26.5454 46.2828 26.2997 46.5285C26.054 46.7742 25.8982 47.1188 25.8322 47.5625H28.6207ZM25.7992 48.2885C25.8139 48.6075 25.8634 48.8843 25.9477 49.119C26.032 49.35 26.1439 49.5425 26.2832 49.6965C26.4262 49.8505 26.5949 49.966 26.7892 50.043C26.9872 50.1163 27.2072 50.153 27.4492 50.153C27.6802 50.153 27.88 50.1273 28.0487 50.076C28.2174 50.021 28.364 49.9623 28.4887 49.9C28.6134 49.834 28.7197 49.7753 28.8077 49.724C28.8957 49.669 28.9764 49.6415 29.0497 49.6415C29.145 49.6415 29.2184 49.6782 29.2697 49.7515L29.6052 50.186C29.4659 50.351 29.3082 50.4903 29.1322 50.604C28.9562 50.7177 28.7692 50.8112 28.5712 50.8845C28.3732 50.9542 28.1697 51.0037 27.9607 51.033C27.7517 51.066 27.5482 51.0825 27.3502 51.0825C26.9615 51.0825 26.6004 51.0183 26.2667 50.89C25.9367 50.758 25.6489 50.5655 25.4032 50.3125C25.1612 50.0595 24.9705 49.746 24.8312 49.372C24.6955 48.998 24.6277 48.5672 24.6277 48.0795C24.6277 47.6908 24.6882 47.3278 24.8092 46.9905C24.9339 46.6532 25.1099 46.3598 25.3372 46.1105C25.5682 45.8612 25.8469 45.665 26.1732 45.522C26.5032 45.3753 26.8754 45.302 27.2897 45.302C27.6344 45.302 27.9534 45.3588 28.2467 45.4725C28.54 45.5825 28.793 45.7457 29.0057 45.962C29.2184 46.1783 29.3834 46.4442 29.5007 46.7595C29.6217 47.0712 29.6822 47.4268 29.6822 47.8265C29.6822 48.0098 29.662 48.1327 29.6217 48.195C29.5814 48.2573 29.508 48.2885 29.4017 48.2885H25.7992ZM33.7825 48.547C33.3608 48.5617 33.0051 48.5965 32.7155 48.6515C32.4258 48.7028 32.1911 48.7707 32.0115 48.855C31.8318 48.9357 31.7016 49.0328 31.621 49.1465C31.544 49.2602 31.5055 49.3848 31.5055 49.5205C31.5055 49.6525 31.5256 49.7662 31.566 49.8615C31.61 49.9532 31.6686 50.0302 31.742 50.0925C31.819 50.1512 31.907 50.1952 32.006 50.2245C32.1086 50.2502 32.2205 50.263 32.3415 50.263C32.6495 50.263 32.9135 50.2062 33.1335 50.0925C33.3571 49.9752 33.5735 49.8065 33.7825 49.5865V48.547ZM30.6475 46.171C31.2818 45.5807 32.0371 45.2855 32.9135 45.2855C33.2361 45.2855 33.5221 45.3387 33.7715 45.445C34.0245 45.5477 34.2353 45.6943 34.404 45.885C34.5763 46.0757 34.7065 46.303 34.7945 46.567C34.8861 46.8273 34.932 47.117 34.932 47.436V51H34.404C34.2903 51 34.2041 50.9835 34.1455 50.9505C34.0868 50.9138 34.0373 50.8423 33.997 50.736L33.8815 50.2795C33.7385 50.4078 33.5973 50.5233 33.458 50.626C33.3186 50.725 33.1738 50.8093 33.0235 50.879C32.8768 50.9487 32.7173 51 32.545 51.033C32.3763 51.0697 32.1893 51.088 31.984 51.088C31.7566 51.088 31.544 51.0568 31.346 50.9945C31.1516 50.9322 30.983 50.8387 30.84 50.714C30.697 50.5857 30.5833 50.428 30.499 50.241C30.4183 50.054 30.378 49.834 30.378 49.581C30.378 49.3647 30.4348 49.1538 30.5485 48.9485C30.6658 48.7432 30.8565 48.5598 31.1205 48.3985C31.3881 48.2335 31.7383 48.0978 32.171 47.9915C32.6073 47.8852 33.1445 47.8247 33.7825 47.81V47.436C33.7825 47.0327 33.6963 46.732 33.524 46.534C33.3516 46.336 33.0986 46.237 32.765 46.237C32.5376 46.237 32.347 46.2663 32.193 46.325C32.039 46.38 31.9051 46.4405 31.7915 46.5065C31.6778 46.5725 31.577 46.6348 31.489 46.6935C31.401 46.7485 31.3075 46.776 31.2085 46.776C31.1278 46.776 31.0581 46.7558 30.9995 46.7155C30.9445 46.6715 30.8986 46.6183 30.862 46.556L30.6475 46.171ZM36.3172 51V45.39H37.0322C37.1935 45.39 37.2962 45.4652 37.3402 45.6155L37.4172 46.105C37.5198 45.9877 37.6262 45.8813 37.7362 45.786C37.8462 45.687 37.9635 45.6027 38.0882 45.533C38.2165 45.4597 38.3522 45.4028 38.4952 45.3625C38.6418 45.3222 38.7995 45.302 38.9682 45.302C39.1478 45.302 39.3128 45.3277 39.4632 45.379C39.6135 45.4303 39.7455 45.5037 39.8592 45.599C39.9765 45.6943 40.0773 45.8098 40.1617 45.9455C40.246 46.0812 40.3157 46.2333 40.3707 46.402C40.455 46.2077 40.5613 46.0408 40.6897 45.9015C40.818 45.7622 40.961 45.6485 41.1187 45.5605C41.2763 45.4725 41.4432 45.4083 41.6192 45.368C41.7988 45.324 41.9803 45.302 42.1637 45.302C42.4643 45.302 42.732 45.3497 42.9667 45.445C43.205 45.5403 43.4048 45.6797 43.5662 45.863C43.7312 46.0427 43.8558 46.2645 43.9402 46.5285C44.0245 46.7925 44.0667 47.0932 44.0667 47.4305V51H42.8842V47.4305C42.8842 47.0345 42.798 46.7375 42.6257 46.5395C42.457 46.3378 42.2058 46.237 41.8722 46.237C41.7218 46.237 41.5807 46.2627 41.4487 46.314C41.3167 46.3653 41.2012 46.4405 41.1022 46.5395C41.0032 46.6385 40.9243 46.7632 40.8657 46.9135C40.8107 47.0602 40.7832 47.2325 40.7832 47.4305V51H39.6007V47.4305C39.6007 47.0198 39.5182 46.7192 39.3532 46.5285C39.1882 46.3342 38.9462 46.237 38.6272 46.237C38.4072 46.237 38.2037 46.2938 38.0167 46.4075C37.8297 46.5175 37.6573 46.6697 37.4997 46.864V51H36.3172ZM48.7975 46.4075C48.7682 46.4588 48.7352 46.4955 48.6985 46.5175C48.6619 46.5395 48.616 46.5505 48.561 46.5505C48.4987 46.5505 48.4309 46.5322 48.3575 46.4955C48.2842 46.4552 48.198 46.4112 48.099 46.3635C48 46.3158 47.8827 46.2737 47.747 46.237C47.615 46.1967 47.4592 46.1765 47.2795 46.1765C47.1329 46.1765 46.999 46.1948 46.878 46.2315C46.7607 46.2645 46.6599 46.314 46.5755 46.38C46.4949 46.4423 46.4325 46.5175 46.3885 46.6055C46.3445 46.6898 46.3225 46.7815 46.3225 46.8805C46.3225 47.0125 46.3629 47.1225 46.4435 47.2105C46.5242 47.2985 46.6305 47.3755 46.7625 47.4415C46.8945 47.5038 47.0449 47.5607 47.2135 47.612C47.3822 47.6633 47.5545 47.7183 47.7305 47.777C47.9065 47.8357 48.0789 47.9035 48.2475 47.9805C48.4162 48.0575 48.5665 48.1528 48.6985 48.2665C48.8305 48.3765 48.9369 48.5122 49.0175 48.6735C49.0982 48.8312 49.1385 49.0237 49.1385 49.251C49.1385 49.515 49.0909 49.7588 48.9955 49.9825C48.9002 50.2062 48.7609 50.4005 48.5775 50.5655C48.3942 50.7305 48.165 50.8588 47.89 50.9505C47.6187 51.0422 47.307 51.088 46.955 51.088C46.7607 51.088 46.5719 51.0697 46.3885 51.033C46.2089 51 46.0365 50.9542 45.8715 50.8955C45.7102 50.8332 45.558 50.7598 45.415 50.6755C45.2757 50.5912 45.151 50.4995 45.041 50.4005L45.316 49.9495C45.349 49.8945 45.3894 49.8523 45.437 49.823C45.4884 49.79 45.5507 49.7735 45.624 49.7735C45.701 49.7735 45.7762 49.7992 45.8495 49.8505C45.9265 49.8982 46.0145 49.9513 46.1135 50.01C46.2162 50.0687 46.339 50.1237 46.482 50.175C46.625 50.2227 46.8029 50.2465 47.0155 50.2465C47.1915 50.2465 47.3437 50.2263 47.472 50.186C47.6004 50.142 47.7067 50.0833 47.791 50.01C47.8754 49.9367 47.9377 49.8542 47.978 49.7625C48.0184 49.6672 48.0385 49.5663 48.0385 49.46C48.0385 49.317 47.9982 49.1997 47.9175 49.108C47.8369 49.0163 47.7287 48.9375 47.593 48.8715C47.461 48.8055 47.3089 48.7468 47.1365 48.6955C46.9679 48.6442 46.7955 48.5892 46.6195 48.5305C46.4435 48.4718 46.2694 48.404 46.097 48.327C45.9284 48.25 45.7762 48.1528 45.6405 48.0355C45.5085 47.9145 45.4022 47.7697 45.3215 47.601C45.2409 47.4287 45.2005 47.2197 45.2005 46.974C45.2005 46.7503 45.2445 46.5377 45.3325 46.336C45.4242 46.1343 45.5562 45.9565 45.7285 45.8025C45.9045 45.6485 46.119 45.5275 46.372 45.4395C46.6287 45.3478 46.9239 45.302 47.2575 45.302C47.6352 45.302 47.978 45.3625 48.286 45.4835C48.594 45.6045 48.8525 45.7695 49.0615 45.9785L48.7975 46.4075Z" fill="#525252"/>
</svg>
